<svg id="Layer_1" data-name="Layer 1" xmlns="http://www.w3.org/2000/svg" viewBox="0 0 600 400"><defs><style>.cls-1{fill:#231f20;}</style></defs><title>Untitled-3</title><path class="cls-1" d="M135,98.55q25.22,3.77,39.72,22.26t19.57,53.54Q198.75,205,180,223.54a54.32,54.32,0,0,1-18.78,12.58,90.42,90.42,0,0,1-20.52,5.67,57.33,57.33,0,0,1-16.23.37c-1-.19-2-.41-3.06-.67s-2-.5-2.81-.7q.76,5.31-5.83,7.5a6.34,6.34,0,0,1-4.45-1,7.2,7.2,0,0,1-2.91-3.9,28.63,28.63,0,0,1-1.47-4.23q-1.17-3.78-3-9.92a38.72,38.72,0,0,1-5.2-6.16,26.18,26.18,0,0,0-2-2.91,10.22,10.22,0,0,1-.56-1.28,6.81,6.81,0,0,1-.31-1.31,6.25,6.25,0,0,1,1.48-5.15,85,85,0,0,1-3-12.15q-1.26-7-3.3-16-3.21-13.59-6.39-26.33A221.83,221.83,0,0,1,77.05,136q-1.68-11.6-4.28-24.54T67.69,87.42q-2.47-11.11-4.27-18.5t-1.88-7.87a6.17,6.17,0,0,1,1.17-4.73,8.74,8.74,0,0,1,4.62-3,6.57,6.57,0,0,1,4.86,1.15A6.87,6.87,0,0,1,75,58.62q.09.72,1.91,8.11t4.25,18.38q2.44,11,5.08,24t4.33,24.91l.56,3.87A86.47,86.47,0,0,1,98,122a56.26,56.26,0,0,1,9.73-12.88q8.83-8.91,19.7-10.49a31,31,0,0,1,3.78-.3A34.08,34.08,0,0,1,135,98.55Zm35.38,115.27q13.76-14.07,10.38-37.51Q178,157,172.68,144.92t-11.87-19a39.51,39.51,0,0,0-13.75-9.86,61.92,61.92,0,0,0-14-3.9,4.49,4.49,0,0,0-2-.2l-1.93.28a16.27,16.27,0,0,0-6.44,2.41,25.84,25.84,0,0,0-5.19,4.2A55.53,55.53,0,0,0,110,129.05a63.22,63.22,0,0,0-6.07,14.32,89.15,89.15,0,0,0-2.54,38q2.67,10,5.52,19.43t5.51,17.7c2,1,3.15,3,3.57,5.9a22.47,22.47,0,0,0,4.83,2.75,19.31,19.31,0,0,0,5.63,1.41q4.56.82,12.29-.29a75.15,75.15,0,0,0,16.38-4.46A44.31,44.31,0,0,0,170.41,213.82Z"/><path class="cls-1" d="M315.4,143.32q4.34,14.67,8.94,26.08t8.33,19.28q3.72,7.84,6.18,12c1.64,2.81,2.47,4.3,2.49,4.45a11.94,11.94,0,0,1,.56,1.28,6.81,6.81,0,0,1,.31,1.31,6.6,6.6,0,0,1-3,6.84,13.86,13.86,0,0,1-2.83.91q-4.59.66-6.6-3c-.42-.6-2.45-4.21-6.12-10.83s-7.86-16-12.58-28.16a105,105,0,0,1-6.55,18.71,82.22,82.22,0,0,1-9.13,15.37,51,51,0,0,1-11,10.84,28.07,28.07,0,0,1-12.22,5.1q-24.64,3.55-38.93-11.65T214,161.65a71.74,71.74,0,0,1,.63-26.36,72.14,72.14,0,0,1,21.81-37.8,108.7,108.7,0,0,1,15.43-11.85,84.49,84.49,0,0,1,14.47-7.39,54.12,54.12,0,0,1,10.89-3.17,27,27,0,0,1,13,1,36.07,36.07,0,0,1,9.72,5A31.3,31.3,0,0,1,306,86.83a24.21,24.21,0,0,1,2.16,3,5.15,5.15,0,0,1,1.11,2.56,8.3,8.3,0,0,1-1.44,5.39q3.81,11,6.5,29.64.56,3.87.75,7.79T315.4,143.32ZM270.26,210q5.07-.74,10.44-6.32a60.8,60.8,0,0,0,9.88-14.38,100.61,100.61,0,0,0,7.57-20.21,105.88,105.88,0,0,0,3.47-23.81q-3.36-11.36-6.18-24t-5.15-27.13a6.69,6.69,0,0,1-3.42-4.93,27.82,27.82,0,0,0-3.68-.71,16,16,0,0,0-4.06.1,43.05,43.05,0,0,0-8.74,2.62,69.58,69.58,0,0,0-11.94,6.16,83.86,83.86,0,0,0-12.52,9.82,62.71,62.71,0,0,0-10.86,13.66,61.78,61.78,0,0,0-7,17.53,56.55,56.55,0,0,0-.63,21.3q2.66,18.38,7.24,28.8T245.1,204a23.47,23.47,0,0,0,12.21,6A45.31,45.31,0,0,0,270.26,210Z"/><path class="cls-1" d="M424.52,183.32a7.75,7.75,0,0,1,3.73-1.53,6.34,6.34,0,0,1,6,2.1,7.25,7.25,0,0,1,1.76,3.69q.45,3.15-2.34,6L432.14,195a30.87,30.87,0,0,1-4.73,3.15,74.76,74.76,0,0,1-6.8,3.33,33.07,33.07,0,0,1-8.42,2.32q-5.81.84-14.52-1.48t-17.78-9.52q-9.06-7.2-17.06-20t-12.36-32.62a17.5,17.5,0,0,1-.64-2.75l-.4-2.78a68.58,68.58,0,0,1,1.6-29.09,82.76,82.76,0,0,1,10.56-23.35A69.9,69.9,0,0,1,376.16,66.1Q384,59.91,390,58.55a13.85,13.85,0,0,1,2.5-.61l2.54-.36a50.21,50.21,0,0,1,12.4-.44,42.61,42.61,0,0,1,7.46,1.27c1.81.07,3.85,1.05,6.09,2.94s3.82,5.91,4.7,12a6.44,6.44,0,0,1-1.36,5.13,6.7,6.7,0,0,1-4.43,2.61,6.66,6.66,0,0,1-7.74-5.79,16.69,16.69,0,0,0-1-3.79q-1.53-.27-5.29-.72a34.67,34.67,0,0,0-8.84.29l-1.81.26a10.61,10.61,0,0,0-2,.54q-3.79,1-9.64,5.83a53.75,53.75,0,0,0-11,12.81,71.48,71.48,0,0,0-8.26,18.83A55.74,55.74,0,0,0,363,133l.32,2.18a10.9,10.9,0,0,0,.55,2.14q3.34,16.29,9.54,26.74a66.72,66.72,0,0,0,13.1,16.49,40.84,40.84,0,0,0,13.27,8.2q6.36,2.16,10.47,1.57a21.24,21.24,0,0,0,5.45-1.53,51,51,0,0,0,4.61-2.26,13.2,13.2,0,0,0,3.12-2.31Z"/><path class="cls-1" d="M528,115.84q3.13,3,9.42,8T551.2,134.7q7.5,5.82,15.4,11.83T581,157.41q6.5,4.86,10.66,8.08a33.87,33.87,0,0,0,4.41,3.19,6.27,6.27,0,0,1,2.87,4.51,6.68,6.68,0,0,1-5.79,7.75A6.62,6.62,0,0,1,588,179.7l-5-3.72q-4.42-3.3-11-8.15T557.5,157Q549.6,151,542,145t-13.91-10.94a110.3,110.3,0,0,1-9.45-8.26q-6.27-5.74-14-13t-15.8-13.75q-3.58,4.22-6.81,8.38T476.08,115a8.89,8.89,0,0,1-2.86,2.39q3.22,12.1,6.71,24.31t6.4,22.14q2.93,9.94,4.82,16.32c1.27,4.26,2,6.63,2,7.11a6.43,6.43,0,0,1-1.05,4.72,8.42,8.42,0,0,1-4.74,3,6.36,6.36,0,0,1-4.46-1,7.14,7.14,0,0,1-2.9-3.9q-.11-.74-2.1-6.85t-4.68-15.36q-2.7-9.22-6-20.73t-6.43-23.24q-3.18-11.75-5.59-22.5T451.69,82.7Q450,71.1,447.41,58.16T442.33,34.1Q439.87,23,438.06,15.6c-1.2-4.92-1.83-7.54-1.87-7.87A6.13,6.13,0,0,1,437.35,3,8.81,8.81,0,0,1,442,0a6.55,6.55,0,0,1,4.85,1.15,6.87,6.87,0,0,1,2.82,4.15c.07.49.71,3.19,1.91,8.12s2.62,11.09,4.27,18.5,3.34,15.42,5.08,24.05,3.17,16.9,4.31,24.79q.63,4.35,1.74,9.49t2.5,11.36q2.52-3.07,5.86-7.26t6.83-8.26q3.48-4.08,6.91-7.66A49.14,49.14,0,0,1,494.94,73a28.13,28.13,0,0,0,5.43-6q3-4.12,5.8-8.48,3.66-5.46,7.29-10.18a37.66,37.66,0,0,1,7.43-7.49,7,7,0,0,1,3-1.17,6.89,6.89,0,0,1,6.53,2.51,7.48,7.48,0,0,1,1.21,3.28,6.91,6.91,0,0,1-.37,3.38,6.23,6.23,0,0,1-2.42,2.94,28,28,0,0,0-5.43,6q-3,4.14-5.8,8.49-3.66,5.46-7.17,10.16a35.4,35.4,0,0,1-7.31,7.47,62.34,62.34,0,0,0-5.2,4.94q8.11,6.72,15.95,14T528,115.84Z"/><path class="cls-1" d="M15.06,257.86A692.45,692.45,0,0,1,39.72,392.4c.45,5.46,6.09,9.62,11.29,6.48a556,556,0,0,0,123.9-102c6.47-7.14-4.11-17.78-10.61-10.61A541.55,541.55,0,0,1,43.44,385.92l11.28,6.48A713.87,713.87,0,0,0,29.53,253.87c-2.66-9.26-17.14-5.32-14.47,4Z"/></svg>