<?xml version="1.0" encoding="utf-8"?>
<!-- Generator: Adobe Illustrator 23.0.2, SVG Export Plug-In . SVG Version: 6.00 Build 0)  -->
<svg version="1.1" id="Layer_1" xmlns="http://www.w3.org/2000/svg" xmlns:xlink="http://www.w3.org/1999/xlink" x="0px" y="0px"
	 viewBox="0 0 600 400" style="enable-background:new 0 0 600 400;" xml:space="preserve">
<style type="text/css">
	.st0{fill:#231F20;}
</style>
<path class="st0" d="M135,101.6c16.8,2.5,30.1,9.9,39.7,22.3s16.2,30.2,19.6,53.5c3,20.4-1.8,36.8-14.3,49.2
	c-5.3,5.5-11.7,9.7-18.8,12.6c-6.6,2.7-13.5,4.6-20.5,5.7c-5.4,0.9-10.8,1-16.2,0.4c-1-0.2-2-0.4-3.1-0.7s-2-0.5-2.8-0.7
	c0.5,3.5-1.4,6-5.8,7.5c-1.6,0.2-3.1-0.1-4.4-1c-1.4-0.9-2.4-2.3-2.9-3.9c-0.6-1.4-1.1-2.8-1.5-4.2c-0.8-2.5-1.8-5.8-3-9.9
	c-1.9-1.9-3.7-3.9-5.2-6.2c-0.6-1-1.3-2-2-2.9c-0.2-0.4-0.4-0.8-0.6-1.3c-0.1-0.4-0.3-0.9-0.3-1.3c-0.3-1.9,0.2-3.7,1.5-5.1
	c-1.3-4-2.3-8-3-12.1c-0.8-4.7-1.9-10-3.3-16c-2.1-9.1-4.3-17.8-6.4-26.3c-1.9-7.2-3.4-14.6-4.6-22c-1.1-7.7-2.5-15.9-4.3-24.5
	s-3.4-16.6-5.1-24C66,83,64.6,76.8,63.4,71.9s-1.8-7.6-1.9-7.9c-0.3-1.7,0.1-3.4,1.2-4.7c1.2-1.5,2.8-2.5,4.6-3
	c1.7-0.3,3.5,0.1,4.9,1.2c1.4,1,2.4,2.5,2.8,4.2c0.1,0.5,0.7,3.2,1.9,8.1c1.2,4.9,2.6,11.1,4.3,18.4c1.6,7.3,3.3,15.3,5.1,24
	c1.8,8.7,3.2,17,4.3,24.9l0.6,3.9c1.8-5.5,4.1-10.8,6.9-15.9c2.6-4.7,5.9-9.1,9.7-12.9c5.9-5.9,12.5-9.4,19.7-10.5
	c1.3-0.2,2.5-0.3,3.8-0.3C132.5,101.3,133.7,101.4,135,101.6z M170.4,216.8c9.2-9.4,12.6-21.9,10.4-37.5
	c-1.8-12.9-4.5-23.3-8.1-31.4c-3.5-8.1-7.5-14.4-11.9-19c-3.8-4.2-8.5-7.6-13.8-9.9c-4.5-1.8-9.2-3.2-14-3.9c-0.6-0.2-1.3-0.3-2-0.2
	l-1.9,0.3c-2.3,0.3-4.5,1.2-6.4,2.4c-1.9,1.2-3.6,2.6-5.2,4.2c-2.9,3.1-5.4,6.5-7.5,10.2c-2.6,4.5-4.6,9.3-6.1,14.3
	c-3.6,12.3-4.4,25.3-2.5,38c1.8,6.7,3.6,13.1,5.5,19.4c1.9,6.3,3.7,12.2,5.5,17.7c2,1,3.2,3,3.6,5.9c1.5,1.1,3.1,2,4.8,2.8
	c1.8,0.8,3.7,1.2,5.6,1.4c3,0.5,7.1,0.5,12.3-0.3c5.6-0.9,11.1-2.4,16.4-4.5C160.9,224.6,166.1,221.2,170.4,216.8L170.4,216.8z"/>
<path class="st0" d="M315.4,146.3c2.9,9.8,5.9,18.5,8.9,26.1c3.1,7.6,5.8,14,8.3,19.3c2.5,5.2,4.5,9.2,6.2,12
	c1.6,2.8,2.5,4.3,2.5,4.4c0.2,0.4,0.4,0.8,0.6,1.3c0.1,0.4,0.3,0.9,0.3,1.3c0.5,2.7-0.7,5.4-3,6.8c-0.9,0.4-1.9,0.7-2.8,0.9
	c-3.1,0.4-5.3-0.6-6.6-3c-0.4-0.6-2.5-4.2-6.1-10.8s-7.9-16-12.6-28.2c-1.6,6.4-3.8,12.7-6.5,18.7c-2.5,5.4-5.5,10.6-9.1,15.4
	c-3.1,4.2-6.8,7.8-11,10.8c-3.6,2.7-7.8,4.4-12.2,5.1c-16.4,2.4-29.4-1.5-38.9-11.6S217.3,188,214,164.6c-1.4-8.8-1.2-17.7,0.6-26.4
	c3.2-14.5,10.8-27.8,21.8-37.8c4.8-4.4,9.9-8.4,15.4-11.8c4.6-2.9,9.4-5.4,14.5-7.4c3.5-1.4,7.2-2.5,10.9-3.2c4.3-0.7,8.8-0.4,13,1
	c3.5,1.2,6.8,2.8,9.7,5c2.3,1.6,4.3,3.6,6,5.8c0.8,0.9,1.5,1.9,2.2,3c0.6,0.7,1,1.6,1.1,2.6c0.2,1.9-0.4,3.8-1.4,5.4
	c2.5,7.3,4.7,17.2,6.5,29.6c0.4,2.6,0.6,5.2,0.8,7.8C315.2,140.8,315.3,143.5,315.4,146.3z M270.3,213c3.4-0.5,6.9-2.6,10.4-6.3
	c4-4.3,7.3-9.1,9.9-14.4c3.2-6.4,5.8-13.2,7.6-20.2c2.1-7.8,3.2-15.8,3.5-23.8c-2.2-7.6-4.3-15.6-6.2-24s-3.6-17.5-5.1-27.1
	c-1.9-1-3.1-2.8-3.4-4.9c-1.2-0.3-2.4-0.6-3.7-0.7c-1.4-0.1-2.7-0.1-4.1,0.1c-3,0.6-5.9,1.4-8.7,2.6c-4.2,1.7-8.2,3.7-11.9,6.2
	c-4.5,2.9-8.7,6.2-12.5,9.8c-4.2,4-7.9,8.6-10.9,13.7c-3.2,5.5-5.6,11.4-7,17.5c-1.6,7-1.8,14.2-0.6,21.3
	c1.8,12.3,4.2,21.9,7.2,28.8c3.1,6.9,6.5,12.1,10.4,15.5c3.4,3.2,7.6,5.2,12.2,6C261.6,213.6,266,213.6,270.3,213z"/>
<path class="st0" d="M441.4,179.5c1.1-0.8,2.4-1.4,3.7-1.5c2.2-0.4,4.5,0.4,6,2.1c0.9,1,1.5,2.3,1.8,3.7c0.3,2.1-0.5,4.1-2.3,6
	l-1.5,1.4c-1.5,1.2-3.1,2.2-4.7,3.1c-2.2,1.2-7.2,3.5-9.5,4.5c-2.7,1.1-13.1,5-16,5.4c-4.9,1-14.7,2-21.1,1.1
	c-5.8-1.5-11.7-4.7-17.8-9.5c-6-4.8-11.7-11.5-17.1-20c-5.3-8.5-9.5-19.4-12.4-32.6c-0.3-0.9-0.5-1.8-0.6-2.8l-0.4-2.8
	c-1.6-9.7-1-19.6,1.6-29.1c2.3-8.3,5.8-16.2,10.6-23.3c4-6.1,8.9-11.5,14.6-16.1c5.2-4.1,9.8-6.6,13.8-7.5c0.8-0.3,1.6-0.5,2.5-0.6
	l2.5-0.4c4.1-0.7,8.3-0.8,12.4-0.4c2.5,0.2,5,0.6,7.5,1.3c1.8,0.1,3.9,1,6.1,2.9s3.8,5.9,4.7,12c0.3,1.8-0.2,3.7-1.4,5.1
	c-1.1,1.4-2.7,2.4-4.4,2.6c-3.6,0.6-7.1-1.8-7.7-5.4c0-0.1,0-0.2-0.1-0.4c-0.2-1.3-0.5-2.6-1-3.8c-1-0.2-2.8-0.4-5.3-0.7
	c-2.9-0.3-5.9-0.2-8.8,0.3l-1.8,0.3c-0.7,0.1-1.4,0.3-2,0.5c-2.5,0.7-5.7,2.6-9.6,5.8c-4.3,3.7-8,8-11,12.8
	c-3.6,5.8-6.4,12.2-8.3,18.8c-2.1,7.7-2.6,15.8-1.3,23.7l0.3,2.2c0.1,0.7,0.3,1.4,0.5,2.1c2.2,10.9,5.4,19.8,9.5,26.7
	c3.5,6.2,7.9,11.7,13.1,16.5c3.9,3.6,8.4,6.3,13.3,8.2c4.6,1.1,12.7-0.2,15.4-0.6c1.9-0.3,13.4-4.1,15.2-4.8
	c1.6-0.7,5.3-2.8,6.8-3.6c1.1-0.6,2.2-1.4,3.1-2.3L441.4,179.5z"/>
<path class="st0" d="M528,118.8c2.1,2,5.2,4.7,9.4,8c4.2,3.3,8.8,7,13.8,10.9c5,3.9,10.1,7.8,15.4,11.8c5.3,4,10.1,7.6,14.4,10.9
	c4.3,3.2,7.9,5.9,10.7,8.1c1.4,1.2,2.9,2.2,4.4,3.2c1.6,1,2.6,2.7,2.9,4.5c0.6,3.6-1.8,7.1-5.5,7.7c-0.1,0-0.2,0-0.3,0
	c-1.8,0.3-3.7-0.1-5.1-1.2l-5-3.7c-2.9-2.2-6.6-4.9-11-8.1c-4.4-3.2-9.2-6.8-14.5-10.8c-5.3-4-10.4-8-15.5-12s-9.7-7.6-13.9-10.9
	c-3.3-2.6-6.5-5.3-9.5-8.3c-4.2-3.8-8.8-8.2-14-13c-5.2-4.8-10.4-9.4-15.8-13.8c-2.4,2.8-4.7,5.6-6.8,8.4s-4.1,5.3-6,7.6
	c-0.8,1-1.7,1.8-2.9,2.4c2.1,8.1,4.4,16.2,6.7,24.3c2.3,8.1,4.5,15.5,6.4,22.1c2,6.6,3.6,12.1,4.8,16.3c1.3,4.3,2,6.6,2,7.1
	c0.3,1.7-0.1,3.3-1,4.7c-1.2,1.5-2.9,2.6-4.7,3c-1.6,0.2-3.1-0.1-4.5-1c-1.4-0.9-2.4-2.3-2.9-3.9c-0.1-0.5-0.8-2.8-2.1-6.9
	s-2.9-9.2-4.7-15.4c-1.8-6.1-3.8-13.1-6-20.7c-2.2-7.7-4.3-15.4-6.4-23.2c-2.1-7.8-4-15.3-5.6-22.5c-1.6-7.2-2.8-13.4-3.5-18.7
	c-1.1-7.7-2.6-15.9-4.3-24.5c-1.7-8.6-3.4-16.6-5.1-24.1c-1.6-7.4-3.1-13.6-4.3-18.5c-1.2-4.9-1.8-7.5-1.9-7.9
	c-0.3-1.7,0.1-3.4,1.2-4.7c1.2-1.5,2.8-2.5,4.6-3c1.7-0.3,3.4,0.1,4.9,1.2c1.4,1,2.4,2.5,2.8,4.2c0.1,0.5,0.7,3.2,1.9,8.1
	s2.6,11.1,4.3,18.5s3.3,15.4,5.1,24s3.2,16.9,4.3,24.8c0.4,2.9,1,6.1,1.7,9.5s1.6,7.2,2.5,11.4c1.7-2,3.6-4.5,5.9-7.3
	c2.2-2.8,4.5-5.5,6.8-8.3c2.3-2.7,4.6-5.3,6.9-7.7c1.8-2,3.8-3.8,5.9-5.4c2.1-1.7,3.9-3.7,5.4-6c2-2.7,3.9-5.6,5.8-8.5
	c2.4-3.6,4.9-7,7.3-10.2c2.1-2.8,4.6-5.4,7.4-7.5c0.9-0.6,1.9-1,3-1.2c2.5-0.4,5,0.5,6.5,2.5c0.7,1,1.1,2.1,1.2,3.3
	c0.2,1.1,0,2.3-0.4,3.4c-0.5,1.2-1.3,2.2-2.4,2.9c-2.1,1.7-3.9,3.7-5.4,6c-2,2.8-3.9,5.6-5.8,8.5c-2.4,3.6-4.8,7-7.2,10.2
	c-2.1,2.8-4.5,5.4-7.3,7.5c-1.8,1.5-3.6,3.2-5.2,4.9c5.4,4.5,10.7,9.1,15.9,14C519.1,110.7,523.8,115,528,118.8z"/>
<path class="st0" d="M15.1,247.9c12.6,43.9,20.9,89,24.7,134.5c0.5,5.5,6.1,9.6,11.3,6.5c46-27.8,87.8-62.2,123.9-102
	c6.5-7.1-4.1-17.8-10.6-10.6c-35.2,38.9-76,72.5-120.9,99.6l11.3,6.5c-3.8-46.9-12.2-93.3-25.2-138.5
	C26.9,234.6,12.4,238.5,15.1,247.9L15.1,247.9z"/>
</svg>
