<?xml version="1.0" standalone="no"?>
<!DOCTYPE svg PUBLIC "-//W3C//DTD SVG 20010904//EN"
 "http://www.w3.org/TR/2001/REC-SVG-20010904/DTD/svg10.dtd">
<svg version="1.0" xmlns="http://www.w3.org/2000/svg"
 width="700.000000pt" height="700.000000pt" viewBox="0 0 700.000000 700.000000"
 preserveAspectRatio="xMidYMid meet">
<metadata>
Created by potrace 1.11, written by Peter Selinger 2001-2013
</metadata>
<g transform="translate(0.000000,700.000000) scale(0.100000,-0.100000)"
fill="#000000" stroke="none">
<path d="M2643 6032 c-85 -27 -156 -98 -169 -166 -2 -12 -17 -87 -34 -167 -17
-79 -42 -198 -55 -264 -13 -66 -33 -160 -44 -210 -10 -49 -21 -103 -24 -120
-3 -16 -10 -50 -16 -75 -10 -43 -88 -416 -97 -467 -3 -13 -21 -99 -40 -191
-20 -92 -38 -178 -40 -192 -2 -14 -9 -52 -17 -85 -13 -58 -14 -60 -53 -67
-106 -20 -143 -32 -214 -74 -116 -68 -233 -220 -274 -358 l-14 -46 285 -2 285
-3 3 -177 c1 -97 5 -180 8 -185 3 -4 8 -35 12 -68 3 -33 15 -96 25 -140 23
-95 41 -73 -160 -191 -80 -47 -183 -108 -230 -136 -47 -28 -183 -109 -303
-181 -178 -106 -215 -132 -206 -143 6 -8 17 -14 23 -14 7 0 21 -8 32 -17 10
-10 46 -38 79 -63 130 -97 315 -302 404 -446 43 -70 113 -216 106 -222 -3 -3
-12 -7 -20 -8 -94 -14 -85 -12 -300 -55 -460 -91 -814 -206 -930 -301 -86 -71
-214 -293 -502 -868 l-162 -325 1749 -3 c963 -1 2537 -1 3499 0 l1750 3 -163
325 c-320 640 -432 826 -539 893 -132 84 -374 163 -747 246 -128 28 -154 34
-225 46 -16 3 -64 12 -105 20 -41 8 -88 16 -105 18 -38 5 -36 17 14 118 117
232 338 482 554 623 31 21 57 40 57 42 0 2 -39 26 -87 55 -667 393 -841 501
-837 520 2 10 6 27 8 37 37 149 47 238 52 427 2 83 3 156 4 163 0 9 64 12 285
12 l285 0 -5 33 c-44 262 -224 436 -465 450 -68 4 -76 8 -84 49 -7 39 -8 42
-36 178 -12 58 -23 112 -25 120 -2 8 -17 83 -35 165 -17 83 -38 182 -45 220
-16 80 -13 63 -55 260 -18 83 -33 157 -35 165 -4 27 -18 95 -21 105 -1 6 -7
33 -13 60 -11 52 -13 64 -26 130 -5 22 -9 45 -11 50 -1 6 -5 26 -9 45 -10 58
-55 263 -65 300 -22 81 -117 152 -223 166 -34 5 -146 -7 -197 -21 -3 -1 -23
-5 -45 -9 -22 -4 -85 -17 -140 -27 -55 -11 -116 -22 -135 -25 -19 -3 -42 -7
-52 -10 -9 -3 -42 -9 -75 -15 -32 -6 -69 -12 -83 -15 -61 -10 -97 -10 -154 2
-33 7 -74 15 -91 17 -16 3 -55 10 -85 17 -30 6 -67 13 -82 15 -15 3 -74 14
-130 26 -57 11 -119 22 -138 25 -19 3 -51 9 -70 15 -51 13 -118 10 -177 -9z
m2002 -2644 c-2 -90 -6 -174 -8 -188 -3 -14 -9 -47 -13 -75 -9 -61 -10 -65
-24 -129 -14 -59 -80 -253 -106 -311 -10 -22 -18 -42 -19 -45 -1 -6 -65 -132
-95 -185 -29 -52 -134 -207 -168 -248 -60 -73 -221 -226 -277 -264 -259 -175
-508 -196 -765 -62 -171 89 -357 268 -481 464 -21 33 -43 65 -49 72 -12 14
-130 247 -130 257 0 3 -9 25 -19 49 -40 88 -89 249 -110 362 -20 111 -22 130
-27 298 l-5 167 1149 0 1150 0 -3 -162z"/>
</g>
</svg>
